<svg xmlns="http://www.w3.org/2000/svg" width="158" height="162" fill="none" viewBox="0 0 158 162"><ellipse cx="79" cy="81" fill="url(#paint0_linear_1829_2450)" rx="79" ry="81"/><mask id="mask0_1829_2450" style="mask-type:luminance" width="152" height="155" x="3" y="4" maskUnits="userSpaceOnUse"><path fill="#fff" d="M78.6645 158.589C120.453 158.589 154.329 124.096 154.329 81.5467C154.329 38.9972 120.453 4.50391 78.6645 4.50391C36.8762 4.50391 3 38.9972 3 81.5467C3 124.096 36.8762 158.589 78.6645 158.589Z"/></mask><g mask="url(#mask0_1829_2450)"><path fill="#fff" d="M159.676 4.38574H-2.34668V158.708H159.676V4.38574Z"/><path fill="#BA1D2C" d="M106.142 60.181L159.676 11.2511V4.38574H155.979L94.9384 60.181H106.142Z"/><path fill="#BA1D2C" d="M103.609 106.017L159.676 157.233V146.992L114.812 106.017H103.609Z"/><path fill="#BA1D2C" d="M-2.34668 16.1466L45.6071 60.1808H56.8144L-2.34668 5.88281V16.1466Z"/><path fill="#BA1D2C" d="M54.2811 106.017L-2.34668 157.812V158.707H7.87605L65.4844 106.017H54.2811Z"/><path fill="#2E2A72" d="M148.593 4.38574H91.8643V56.2683L148.593 4.38574Z"/><path fill="#2E2A72" d="M66.8078 4.38574H10.3085L66.8078 56.2683V4.38574Z"/><path fill="#2E2A72" d="M159.676 60.1809V24.7798L121.194 60.1809H159.676Z"/><path fill="#2E2A72" d="M159.676 141.03V106.017H121.194L159.676 141.03Z"/><path fill="#2E2A72" d="M13.5146 158.708H66.8074V109.934L13.5146 158.708Z"/><path fill="#2E2A72" d="M91.8643 158.708H145.324L91.8643 109.934V158.708Z"/><path fill="#2E2A72" d="M-2.34668 106.017V142.607L37.474 106.017H-2.34668Z"/><path fill="#2E2A72" d="M-2.34668 60.1808H37.474L-2.34668 23.53V60.1808Z"/><path fill="#BA1D2C" d="M71.8196 4.38574V69.3513H-2.34668V96.8508H71.8196V158.708H86.8521V96.8508H159.676V69.3513H86.8521V4.38574H71.8196Z"/></g><path fill="#18B6F6" d="M141.734 38.1253L135.068 31.4969L134.966 31.5114V31.4387L120.79 17.4405L124.283 14.0682L122.231 2.29395L112.493 14.3589C110.834 16.0305 110.529 18.7488 111.722 20.7547L117.806 30.8428C118.738 32.3981 120.426 33.3284 122.245 33.3139L125.258 33.2848L141.734 38.1253Z"/><path fill="#AC7EF4" d="M145.373 14.1262L144.034 11.6551L143.336 10.3905L143.059 9.89623L143.03 9.9253L139.362 3.57304C138.445 1.97408 136.728 0.985622 134.865 1.00016L131.648 1.08737L122.056 1.11644C120.237 1.13098 118.578 2.09036 117.661 3.64572L111.824 15.2164L122.26 2.2648L135.942 17.2951L133.511 19.7517L134.967 31.5113L134.981 31.4823V31.5113H134.952L134.981 31.5404L136.116 32.6452L141.633 38.038C141.866 38.2561 142.244 37.9944 142.084 37.7183L138.678 31.0171L144.616 20.0424L144.806 19.8244C144.878 19.7371 144.951 19.6499 145.009 19.5627C146.174 17.9783 146.334 15.856 145.373 14.1262Z"/><path fill="#fff" d="M135.984 17.2369L122.259 2.2793L124.209 13.9954L120.716 17.3823L134.936 31.4968L133.656 19.7807L135.984 17.2369Z"/><defs><linearGradient id="paint0_linear_1829_2450" x1="34.623" x2="140.907" y1="17" y2="133.861" gradientUnits="userSpaceOnUse"><stop stop-color="#AC7FF4"/><stop offset="1" stop-color="#18B6F6"/></linearGradient></defs></svg>