<svg xmlns="http://www.w3.org/2000/svg" width="1114" height="341" fill="none" viewBox="0 0 1114 341"><g clip-path="url(#clip0_3411_1607)"><rect width="1114" height="341" fill="#fff"/><mask id="mask0_3411_1607" style="mask-type:alpha" width="1115" height="341" x="0" y="0" maskUnits="userSpaceOnUse"><rect width="1114.49" height="341" fill="#1E0303"/></mask><g mask="url(#mask0_3411_1607)"><rect width="1119.65" height="632.617" x="-4.715" y="-152.375" fill="#05275A"/><path fill="url(#paint0_linear_3411_1607)" d="M513.431 100.194L230.781 -175.92L287.107 -178.267L534.553 96.6739L513.431 100.194Z"/><path fill="url(#paint1_linear_3411_1607)" d="M-29.1484 -136.366L527.138 83.4826L521.271 97.564L-23.2128 -60.8527L-29.1484 -136.366Z"/><path fill="url(#paint2_linear_3411_1607)" d="M-16.5977 279.143L432.082 208.735L436.124 221.643L-7.16583 297.918L-16.5977 279.143Z"/><path fill="url(#paint3_linear_3411_1607)" d="M-24.3789 28.3291L406.28 98.7365L410.973 113.991L-22.032 69.4L-24.3789 28.3291Z"/><path fill="url(#paint4_linear_3411_1607)" d="M547.242 482.337L553.455 315.906L574.577 324.12L600.048 481.163L547.242 482.337Z"/><path fill="url(#paint5_linear_3411_1607)" d="M-27.9023 464.855L339.39 320.52L348.777 329.907L23.7298 494.191L-27.9023 464.855Z"/><path stroke="url(#paint6_linear_3411_1607)" stroke-linecap="round" stroke-width="3.573" d="M566.586 316.73L576.425 429.65"/><path fill="url(#paint7_linear_3411_1607)" d="M415.664 495.365L508.562 312.306L525.285 315.826L467.296 493.018L415.664 495.365Z"/><path fill="url(#paint8_linear_3411_1607)" d="M482.773 484.947L526.402 323.651L533.859 318.461L503.139 484.451L482.773 484.947Z"/><path stroke="url(#paint9_linear_3411_1607)" stroke-linecap="round" stroke-width="3.573" d="M512.61 322.729L443.641 468.663"/><path stroke="url(#paint10_linear_3411_1607)" stroke-linecap="round" stroke-width="3.573" d="M602.664 341.021L662.602 461.766"/><path fill="url(#paint11_linear_3411_1607)" d="M321.789 172.765L-3.25875 196.033L-5.60547 160.93L310.054 166.797L321.789 172.765Z"/><path fill="url(#paint12_linear_3411_1607)" d="M329.796 484.036L517.268 302.11L497.319 302.11L284.031 478.169L329.796 484.036Z"/><path fill="url(#paint13_linear_3411_1607)" d="M371.751 254.998L-43.5156 351.301L-31.4232 382.714L378.113 264.195L371.751 254.998Z"/><path fill="url(#paint14_linear_3411_1607)" d="M1129.45 279.143L680.766 208.735L676.723 221.643L1120.01 297.918L1129.45 279.143Z"/><path fill="url(#paint15_linear_3411_1607)" d="M1137.23 28.3291L706.568 98.7365L701.874 113.991L1134.88 69.4L1137.23 28.3291Z"/><path fill="url(#paint16_linear_3411_1607)" d="M1140.75 464.855L773.462 320.52L764.074 329.907L1089.12 494.191L1140.75 464.855Z"/><path fill="url(#paint17_linear_3411_1607)" d="M830.52 -213.848L505.443 138.723L544.258 107.995L946.965 -196.057L830.52 -213.848Z"/><path fill="url(#paint18_linear_3411_1607)" d="M678.492 -208.994L600.861 93.4405L585.606 109.869L622.993 -189.045L678.492 -208.994Z"/><path fill="url(#paint19_linear_3411_1607)" d="M736.09 489.249L615.215 326.209L570.238 324.804L592.727 501.899L736.09 489.249Z"/><path fill="url(#paint20_linear_3411_1607)" d="M791.059 172.765L1116.11 196.033L1118.45 160.93L802.793 166.797L791.059 172.765Z"/><path fill="url(#paint21_linear_3411_1607)" d="M832.278 521.822L561.53 309.344L581.479 309.344L878.043 515.955L832.278 521.822Z"/><path fill="url(#paint22_linear_3411_1607)" d="M741.093 254.998L1156.36 351.301L1144.27 382.714L734.731 264.195L741.093 254.998Z"/><path fill="url(#paint23_linear_3411_1607)" d="M575.219 124.571L120.682 -173.403L40.1836 -147.04L570.168 139.722L575.219 124.571Z"/><g filter="url(#filter0_f_3411_1607)"><ellipse cx="554.781" cy="163.355" fill="#2EA6EC" rx="328.804" ry="272.378"/></g><g filter="url(#filter1_f_3411_1607)"><ellipse cx="554.782" cy="163.356" fill="#041123" rx="182.845" ry="110.674"/></g><path stroke="url(#paint24_linear_3411_1607)" stroke-linecap="round" stroke-width="3.573" d="M424.848 255.89L225.582 316.506"/><path stroke="url(#paint25_linear_3411_1607)" stroke-linecap="round" stroke-width="3.573" d="M58.2645 244.662L307.89 208.594"/><path stroke="url(#paint26_linear_3411_1607)" stroke-linecap="round" stroke-width="3.573" d="M210.384 192.758L329.964 183.855"/><path stroke="url(#paint27_linear_3411_1607)" stroke-linecap="round" stroke-width="3.573" d="M39.6016 -3.98828L228.876 32.9539"/><path stroke="url(#paint28_linear_3411_1607)" stroke-linecap="round" stroke-width="3.573" d="M10.8438 65.8643L309.046 104.185"/><path stroke="url(#paint29_linear_3411_1607)" stroke-linecap="round" stroke-width="3.573" d="M780.629 288.748L979.895 349.364"/><path stroke="url(#paint30_linear_3411_1607)" stroke-linecap="round" stroke-width="3.573" d="M927.291 294.704L684.014 232.062"/><path stroke="url(#paint31_linear_3411_1607)" stroke-linecap="round" stroke-width="3.573" d="M969.277 149.34L820.505 145.675"/><path stroke="url(#paint32_linear_3411_1607)" stroke-linecap="round" stroke-width="3.573" d="M1094.18 60.1387L795.977 98.4592"/><path stroke="url(#paint33_linear_3411_1607)" stroke-linecap="round" stroke-width="3.573" d="M314.055 -80.9746L435.57 15.8581"/></g><path fill="url(#paint34_linear_3411_1607)" stroke="#fff" stroke-width="8.283" d="M534.552 261.432L534.126 269.481L642.893 301.378L646.981 294.469L603.108 250.797L601.575 249.271L599.447 249.658L534.552 261.432Z"/><path fill="url(#paint35_linear_3411_1607)" stroke="#fff" stroke-width="8.283" d="M597.388 265.684L598.389 271.843L603.676 268.528L626.062 254.493L626.986 253.913L627.505 252.953L670.306 173.757L663.463 169.159L596.393 250.804L595.205 252.25L595.505 254.097L597.388 265.684Z"/><path fill="url(#paint36_linear_3411_1607)" stroke="#fff" stroke-width="8.283" d="M598.897 249.812L590.638 251.035L596.608 256.871L640.635 299.905L640.642 299.911C643.068 302.272 646.343 301.946 648.382 300.486C650.42 299.025 651.819 295.964 650.199 292.896L627.6 248.421L626.25 245.764L623.302 246.2L598.897 249.812Z"/><path fill="url(#paint37_linear_3411_1607)" stroke="#fff" stroke-width="8.283" d="M662.84 120.903L662.834 120.893L662.829 120.883L658.219 112.507L658.213 112.497L656.405 109.235L653.721 104.392L653.479 104.638L632.085 67.4969C632.084 67.495 632.083 67.4931 632.082 67.4913C625.281 55.6098 612.629 48.3663 598.87 48.4895L598.83 48.4899L598.789 48.4911L576.21 49.1362L570.592 49.2967L572.409 54.6147L606.28 153.767L586.929 173.396L585.521 174.824L585.768 176.814L595.391 254.325L596.559 263.734L602.668 256.483L667.563 179.457L667.574 179.443L667.585 179.43C677.455 167.513 679.111 150.786 671.698 137.212C671.697 137.209 671.696 137.207 671.695 137.205L662.84 120.903Z"/><path fill="url(#paint38_linear_3411_1607)" stroke="#fff" stroke-width="8.283" d="M625.543 114.287L625.482 114.177L625.415 114.071L585.224 51.0012L583.999 49.0801L581.721 49.0855L514.579 49.2449L514.566 49.2449L514.552 49.2451C501.181 49.3648 488.846 56.4095 482.049 67.9796L481.975 68.1048L481.911 68.2348L444.039 144.465L450.986 148.89L516.109 67.2658L603.065 162.879L606.073 166.187L609.142 162.934L625.247 145.856C629.909 141.125 631.343 135.452 630.868 129.844C630.407 124.393 628.159 118.998 625.543 114.287Z"/><path fill="url(#paint39_linear_3411_1607)" stroke="#fff" stroke-width="8.283" d="M532.161 141.895L534.435 139.705L532.925 136.932L511.868 98.2645L509.601 94.1011L505.78 96.9071L449.042 138.571L448.781 138.763L448.552 138.994C436.331 151.324 434.122 170.315 442.997 185.125L443.002 185.133L483.078 251.635C483.079 251.637 483.08 251.638 483.08 251.64C489.957 263.118 502.452 270.048 515.853 269.928L554.539 269.582L560.971 269.524L558.256 263.692L511.029 162.254L532.161 141.895Z"/><path fill="url(#paint40_linear_3411_1607)" d="M599.59 253.381L505.94 160.798L494.286 172.38C484.735 181.808 484.785 197.199 494.327 206.545L535.166 265.524L598.81 265.043L599.59 253.381Z"/><path fill="url(#paint41_linear_3411_1607)" d="M601.472 265.019L623.858 250.984L666.659 171.788L599.589 253.433L601.472 265.019Z"/><path fill="url(#paint42_linear_3411_1607)" d="M659.204 122.88L654.594 114.504L652.787 111.242L652.611 111.421L628.495 69.5537C622.443 58.9763 611.181 52.521 598.911 52.6308L576.332 53.276L611.03 154.851L589.882 176.304L599.505 253.814L664.4 176.788C673.196 166.167 674.663 151.269 668.064 139.191L659.204 122.88Z"/><path fill="url(#paint43_linear_3411_1607)" d="M621.924 116.297L581.733 53.2269L514.591 53.3863C502.659 53.4931 491.673 59.7755 485.621 70.0774L447.211 147.385L515.872 61.1097L606.13 160.092L622.269 142.98C629.682 135.493 626.902 125.263 621.924 116.297Z"/><path fill="url(#paint44_linear_3411_1607)" d="M529.288 138.912L515.756 61.2831L451.494 141.909C440.614 152.886 438.641 169.798 446.55 182.995L486.631 249.507C492.743 259.713 503.865 265.893 515.816 265.786L554.502 265.44L506.028 161.322L529.288 138.912Z"/><path fill="url(#paint45_linear_3411_1607)" d="M535.296 265.507L600.19 253.733L644.063 297.404L535.296 265.507Z"/><path fill="url(#paint46_linear_3411_1607)" d="M599.507 253.908L623.912 250.296L646.529 294.807C647.521 296.643 645.054 298.422 643.533 296.942L599.507 253.908Z"/><path fill="#fff" d="M606.227 159.685L515.894 61.1043L528.733 138.292L505.741 160.585L599.338 253.614L590.916 176.387L606.227 159.685Z"/></g><defs><filter id="filter0_f_3411_1607" width="1550.94" height="1438.09" x="-220.69" y="-555.689" color-interpolation-filters="sRGB" filterUnits="userSpaceOnUse"><feFlood flood-opacity="0" result="BackgroundImageFix"/><feBlend in="SourceGraphic" in2="BackgroundImageFix" mode="normal" result="shape"/><feGaussianBlur result="effect1_foregroundBlur_3411_1607" stdDeviation="223.333"/></filter><filter id="filter1_f_3411_1607" width="812.358" height="668.015" x="148.604" y="-170.652" color-interpolation-filters="sRGB" filterUnits="userSpaceOnUse"><feFlood flood-opacity="0" result="BackgroundImageFix"/><feBlend in="SourceGraphic" in2="BackgroundImageFix" mode="normal" result="shape"/><feGaussianBlur result="effect1_foregroundBlur_3411_1607" stdDeviation="111.667"/></filter><linearGradient id="paint0_linear_3411_1607" x1="300.817" x2="378.517" y1="-126.267" y2="-48.884" gradientUnits="userSpaceOnUse"><stop stop-color="#B4B0FA"/><stop offset="1" stop-color="#019EFF" stop-opacity="0"/></linearGradient><linearGradient id="paint1_linear_3411_1607" x1="14.622" x2="95.428" y1="-102.697" y2="-26.941" gradientUnits="userSpaceOnUse"><stop stop-color="#564DE0"/><stop offset="1" stop-color="#564DE0" stop-opacity="0"/></linearGradient><linearGradient id="paint2_linear_3411_1607" x1="-15.852" x2="177.919" y1="281.271" y2="257.565" gradientUnits="userSpaceOnUse"><stop stop-color="#5048D6"/><stop offset="1" stop-color="#5048D6" stop-opacity="0"/></linearGradient><linearGradient id="paint3_linear_3411_1607" x1="89.207" x2="-1.5" y1="50.811" y2="43.496" gradientUnits="userSpaceOnUse"><stop stop-color="#4441C6"/><stop offset="1" stop-color="#4441C6" stop-opacity="0"/></linearGradient><linearGradient id="paint4_linear_3411_1607" x1="573.645" x2="573.645" y1="315.906" y2="482.337" gradientUnits="userSpaceOnUse"><stop stop-color="#3190ED"/><stop offset="1" stop-color="#3190ED" stop-opacity="0"/></linearGradient><linearGradient id="paint5_linear_3411_1607" x1="141.873" x2="-11.745" y1="412.178" y2="489.718" gradientUnits="userSpaceOnUse"><stop stop-color="#4B46D0"/><stop offset="1" stop-color="#4B46D0" stop-opacity="0"/></linearGradient><linearGradient id="paint6_linear_3411_1607" x1="586.986" x2="582.684" y1="434.059" y2="336.548" gradientUnits="userSpaceOnUse"><stop stop-color="#fff"/><stop offset="1" stop-color="#fff" stop-opacity="0"/></linearGradient><linearGradient id="paint7_linear_3411_1607" x1="488.609" x2="414.931" y1="334.638" y2="472.811" gradientUnits="userSpaceOnUse"><stop stop-color="#3289ED"/><stop offset="1" stop-color="#3289ED" stop-opacity="0"/></linearGradient><linearGradient id="paint8_linear_3411_1607" x1="497.39" x2="466.667" y1="401.939" y2="508.74" gradientUnits="userSpaceOnUse"><stop stop-color="#4C46D0"/><stop offset="1" stop-color="#4C46D0" stop-opacity="0"/></linearGradient><linearGradient id="paint9_linear_3411_1607" x1="427.814" x2="515.287" y1="458.437" y2="345.152" gradientUnits="userSpaceOnUse"><stop stop-color="#fff"/><stop offset="1" stop-color="#fff" stop-opacity="0"/></linearGradient><linearGradient id="paint10_linear_3411_1607" x1="675.632" x2="515.287" y1="464.372" y2="345.153" gradientUnits="userSpaceOnUse"><stop stop-color="#fff"/><stop offset=".89" stop-color="#fff" stop-opacity="0"/></linearGradient><linearGradient id="paint11_linear_3411_1607" x1="309.302" x2="-8.817" y1="157.626" y2="163.464" gradientUnits="userSpaceOnUse"><stop stop-color="#3383EE"/><stop offset="1" stop-color="#3383EE" stop-opacity="0"/></linearGradient><linearGradient id="paint12_linear_3411_1607" x1="307.615" x2="419.302" y1="482.799" y2="376.99" gradientUnits="userSpaceOnUse"><stop stop-color="#3382ED"/><stop offset="1" stop-color="#3382ED" stop-opacity="0"/></linearGradient><linearGradient id="paint13_linear_3411_1607" x1="200.393" x2="5.811" y1="302.452" y2="352.195" gradientUnits="userSpaceOnUse"><stop stop-color="#3382EE"/><stop offset="1" stop-color="#3382EE" stop-opacity="0"/></linearGradient><linearGradient id="paint14_linear_3411_1607" x1="1128.7" x2="934.928" y1="281.271" y2="257.565" gradientUnits="userSpaceOnUse"><stop stop-color="#5048D6"/><stop offset="1" stop-color="#5048D6" stop-opacity="0"/></linearGradient><linearGradient id="paint15_linear_3411_1607" x1="1023.64" x2="1114.35" y1="50.811" y2="43.496" gradientUnits="userSpaceOnUse"><stop stop-color="#4441C6"/><stop offset="1" stop-color="#4441C6" stop-opacity="0"/></linearGradient><linearGradient id="paint16_linear_3411_1607" x1="970.979" x2="1124.6" y1="412.178" y2="489.718" gradientUnits="userSpaceOnUse"><stop stop-color="#4B46D0"/><stop offset="1" stop-color="#4B46D0" stop-opacity="0"/></linearGradient><linearGradient id="paint17_linear_3411_1607" x1="970.977" x2="1124.59" y1="412.178" y2="489.718" gradientUnits="userSpaceOnUse"><stop stop-color="#C6C6D7"/><stop offset="1" stop-color="#4B46D0" stop-opacity="0"/></linearGradient><linearGradient id="paint18_linear_3411_1607" x1="675.332" x2="583.722" y1="-125.835" y2="-8.574" gradientUnits="userSpaceOnUse"><stop stop-color="#DCEEFF"/><stop offset="1" stop-color="#318FEC" stop-opacity="0"/></linearGradient><linearGradient id="paint19_linear_3411_1607" x1="568.752" x2="617.982" y1="334.637" y2="497.188" gradientUnits="userSpaceOnUse"><stop offset=".238" stop-color="#3289ED"/><stop offset="1" stop-color="#3289ED" stop-opacity="0"/></linearGradient><linearGradient id="paint20_linear_3411_1607" x1="803.546" x2="1121.67" y1="157.626" y2="163.464" gradientUnits="userSpaceOnUse"><stop stop-color="#3383EE"/><stop offset="1" stop-color="#3383EE" stop-opacity="0"/></linearGradient><linearGradient id="paint21_linear_3411_1607" x1="805.229" x2="693.542" y1="482.799" y2="376.99" gradientUnits="userSpaceOnUse"><stop stop-color="#3382ED"/><stop offset="1" stop-color="#3382ED" stop-opacity="0"/></linearGradient><linearGradient id="paint22_linear_3411_1607" x1="912.451" x2="1107.03" y1="302.452" y2="352.195" gradientUnits="userSpaceOnUse"><stop stop-color="#3382EE"/><stop offset="1" stop-color="#3382EE" stop-opacity="0"/></linearGradient><linearGradient id="paint23_linear_3411_1607" x1="101.239" x2="216.058" y1="-193.016" y2="-65.984" gradientUnits="userSpaceOnUse"><stop stop-color="#3382EE"/><stop offset=".758" stop-color="#3382EE" stop-opacity="0"/></linearGradient><linearGradient id="paint24_linear_3411_1607" x1="213.752" x2="383.459" y1="275.247" y2="290.477" gradientUnits="userSpaceOnUse"><stop stop-color="#fff"/><stop offset="1" stop-color="#fff" stop-opacity="0"/></linearGradient><linearGradient id="paint25_linear_3411_1607" x1="139.048" x2="310.205" y1="216.504" y2="219.405" gradientUnits="userSpaceOnUse"><stop stop-color="#fff"/><stop offset="1" stop-color="#fff" stop-opacity="0"/></linearGradient><linearGradient id="paint26_linear_3411_1607" x1="207.226" x2="322.539" y1="178.79" y2="189.669" gradientUnits="userSpaceOnUse"><stop stop-color="#fff"/><stop offset="1" stop-color="#fff" stop-opacity="0"/></linearGradient><linearGradient id="paint27_linear_3411_1607" x1="134.239" x2="134.239" y1="-3.988" y2="32.954" gradientUnits="userSpaceOnUse"><stop stop-color="#fff"/><stop offset="1" stop-color="#fff" stop-opacity="0"/></linearGradient><linearGradient id="paint28_linear_3411_1607" x1="159.945" x2="159.945" y1="65.864" y2="104.185" gradientUnits="userSpaceOnUse"><stop stop-color="#fff"/><stop offset="1" stop-color="#fff" stop-opacity="0"/></linearGradient><linearGradient id="paint29_linear_3411_1607" x1="991.725" x2="822.018" y1="308.105" y2="323.336" gradientUnits="userSpaceOnUse"><stop stop-color="#fff"/><stop offset="1" stop-color="#fff" stop-opacity="0"/></linearGradient><linearGradient id="paint30_linear_3411_1607" x1="852.856" x2="681.699" y1="239.971" y2="242.872" gradientUnits="userSpaceOnUse"><stop stop-color="#fff"/><stop offset="1" stop-color="#fff" stop-opacity="0"/></linearGradient><linearGradient id="paint31_linear_3411_1607" x1="972.436" x2="857.122" y1="135.372" y2="146.25" gradientUnits="userSpaceOnUse"><stop stop-color="#fff"/><stop offset="1" stop-color="#fff" stop-opacity="0"/></linearGradient><linearGradient id="paint32_linear_3411_1607" x1="945.078" x2="945.078" y1="60.139" y2="98.459" gradientUnits="userSpaceOnUse"><stop stop-color="#fff"/><stop offset="1" stop-color="#fff" stop-opacity="0"/></linearGradient><linearGradient id="paint33_linear_3411_1607" x1="300.764" x2="433.671" y1="-124.644" y2="-3.129" gradientUnits="userSpaceOnUse"><stop stop-color="#fff"/><stop offset="1" stop-color="#fff" stop-opacity="0"/></linearGradient><linearGradient id="paint34_linear_3411_1607" x1="535.379" x2="643.852" y1="276.361" y2="275.39" gradientUnits="userSpaceOnUse"><stop stop-color="#00B9FF"/><stop offset=".298" stop-color="#0080FF"/><stop offset=".601" stop-color="#2D67F1"/><stop offset=".858" stop-color="#4D55E8"/><stop offset="1" stop-color="#594EE4"/></linearGradient><linearGradient id="paint35_linear_3411_1607" x1="599.272" x2="667.052" y1="218.693" y2="218.087" gradientUnits="userSpaceOnUse"><stop stop-color="#4340C4"/><stop offset=".118" stop-color="#4642C8"/><stop offset="1" stop-color="#594EE4"/></linearGradient><linearGradient id="paint36_linear_3411_1607" x1="600.915" x2="647.243" y1="274.666" y2="274.251" gradientUnits="userSpaceOnUse"><stop stop-color="#4340C4"/><stop offset=".118" stop-color="#4642C8"/><stop offset="1" stop-color="#594EE4"/></linearGradient><linearGradient id="paint37_linear_3411_1607" x1="577.214" x2="672.202" y1="153.357" y2="152.507" gradientUnits="userSpaceOnUse"><stop stop-color="#4340C4"/><stop offset=".74" stop-color="#534ADB"/><stop offset="1" stop-color="#594EE4"/></linearGradient><linearGradient id="paint38_linear_3411_1607" x1="446.853" x2="626.513" y1="107.658" y2="106.049" gradientUnits="userSpaceOnUse"><stop offset=".225" stop-color="#4340C4"/><stop offset=".598" stop-color="#4F48D5"/><stop offset="1" stop-color="#594EE4"/></linearGradient><linearGradient id="paint39_linear_3411_1607" x1="441.688" x2="553.546" y1="164.161" y2="163.16" gradientUnits="userSpaceOnUse"><stop stop-color="#0080FF"/><stop offset="1" stop-color="#00B9FF"/></linearGradient><linearGradient id="paint40_linear_3411_1607" x1="487.364" x2="599.214" y1="213.509" y2="212.508" gradientUnits="userSpaceOnUse"><stop offset="0" stop-color="#0080FF"/><stop offset=".172" stop-color="#008BFF"/><stop offset=".473" stop-color="#00A7FF"/><stop offset=".629" stop-color="#00B9FF"/></linearGradient><linearGradient id="paint41_linear_3411_1607" x1="599.268" x2="667.048" y1="218.693" y2="218.087" gradientUnits="userSpaceOnUse"><stop stop-color="#4340C4"/><stop offset=".118" stop-color="#4642C8"/><stop offset="1" stop-color="#594EE4"/></linearGradient><linearGradient id="paint42_linear_3411_1607" x1="577.218" x2="672.206" y1="153.357" y2="152.507" gradientUnits="userSpaceOnUse"><stop stop-color="#4340C4"/><stop offset=".74" stop-color="#534ADB"/><stop offset="1" stop-color="#594EE4"/></linearGradient><linearGradient id="paint43_linear_3411_1607" x1="446.855" x2="626.515" y1="107.658" y2="106.049" gradientUnits="userSpaceOnUse"><stop offset=".225" stop-color="#4340C4"/><stop offset=".598" stop-color="#4F48D5"/><stop offset="1" stop-color="#594EE4"/></linearGradient><linearGradient id="paint44_linear_3411_1607" x1="441.689" x2="553.547" y1="164.161" y2="163.159" gradientUnits="userSpaceOnUse"><stop stop-color="#0080FF"/><stop offset="1" stop-color="#00B9FF"/></linearGradient><linearGradient id="paint45_linear_3411_1607" x1="535.383" x2="643.856" y1="276.361" y2="275.39" gradientUnits="userSpaceOnUse"><stop stop-color="#00B9FF"/><stop offset=".298" stop-color="#0080FF"/><stop offset=".601" stop-color="#2D67F1"/><stop offset=".858" stop-color="#4D55E8"/><stop offset="1" stop-color="#594EE4"/></linearGradient><linearGradient id="paint46_linear_3411_1607" x1="600.919" x2="647.246" y1="274.665" y2="274.25" gradientUnits="userSpaceOnUse"><stop stop-color="#4340C4"/><stop offset=".118" stop-color="#4642C8"/><stop offset="1" stop-color="#594EE4"/></linearGradient><clipPath id="clip0_3411_1607"><rect width="1114" height="341" fill="#fff"/></clipPath></defs></svg>